<svg xmlns="http://www.w3.org/2000/svg" width="1200" height="675" viewBox="0 0 1200 675" fill="none">
  <defs>
    <linearGradient id="bg" x1="114" y1="72" x2="1118" y2="596" gradientUnits="userSpaceOnUse">
      <stop stop-color="#0C1728"/>
      <stop offset=".52" stop-color="#0B1A2D"/>
      <stop offset="1" stop-color="#07111E"/>
    </linearGradient>
    <linearGradient id="wash" x1="170" y1="82" x2="1042" y2="566" gradientUnits="userSpaceOnUse">
      <stop stop-color="#38BDF8" stop-opacity=".22"/>
      <stop offset=".45" stop-color="#2DD4BF" stop-opacity=".3"/>
      <stop offset="1" stop-color="#0F172A" stop-opacity="0"/>
    </linearGradient>
    <radialGradient id="glowA" cx="0" cy="0" r="1" gradientUnits="userSpaceOnUse" gradientTransform="translate(916 196) rotate(160.4) scale(474 264)">
      <stop stop-color="#22D3EE" stop-opacity=".22"/>
      <stop offset="1" stop-color="#22D3EE" stop-opacity="0"/>
    </radialGradient>
    <radialGradient id="glowB" cx="0" cy="0" r="1" gradientUnits="userSpaceOnUse" gradientTransform="translate(248 476) rotate(-8.3) scale(382 220)">
      <stop stop-color="#5EEAD4" stop-opacity=".18"/>
      <stop offset="1" stop-color="#5EEAD4" stop-opacity="0"/>
    </radialGradient>
  </defs>
  <rect width="1200" height="675" rx="40" fill="url(#bg)"/>
  <circle cx="1030" cy="126" r="124" fill="#0A2236" fill-opacity=".72"/>
  <circle cx="178" cy="534" r="168" fill="#0B1626" fill-opacity=".68"/>
  <g opacity=".56">
    <rect x="114" y="150" width="182" height="352" rx="28" fill="#0D2235"/>
    <rect x="328" y="150" width="182" height="352" rx="28" fill="#0F2B40"/>
    <rect x="542" y="150" width="182" height="352" rx="28" fill="#123449"/>
    <rect x="756" y="150" width="182" height="352" rx="28" fill="#113246"/>
    <rect x="970" y="150" width="116" height="352" rx="28" fill="#0E273B"/>
  </g>
  <g opacity=".86">
    <rect x="142" y="180" width="126" height="18" rx="9" fill="#99F6E4"/>
    <rect x="142" y="228" width="98" height="14" rx="7" fill="#67E8F9" fill-opacity=".9"/>
    <rect x="142" y="430" width="104" height="14" rx="7" fill="#67E8F9" fill-opacity=".58"/>

    <rect x="356" y="180" width="132" height="18" rx="9" fill="#99F6E4"/>
    <rect x="356" y="228" width="88" height="14" rx="7" fill="#67E8F9" fill-opacity=".9"/>
    <rect x="356" y="276" width="118" height="14" rx="7" fill="#A5F3FC" fill-opacity=".42"/>
    <rect x="356" y="430" width="100" height="14" rx="7" fill="#67E8F9" fill-opacity=".58"/>

    <rect x="570" y="180" width="128" height="18" rx="9" fill="#99F6E4"/>
    <rect x="570" y="228" width="94" height="14" rx="7" fill="#67E8F9" fill-opacity=".9"/>
    <rect x="570" y="276" width="108" height="14" rx="7" fill="#A5F3FC" fill-opacity=".42"/>
    <rect x="570" y="324" width="88" height="14" rx="7" fill="#67E8F9" fill-opacity=".38"/>
    <rect x="570" y="430" width="110" height="14" rx="7" fill="#67E8F9" fill-opacity=".58"/>

    <rect x="784" y="180" width="124" height="18" rx="9" fill="#99F6E4"/>
    <rect x="784" y="228" width="92" height="14" rx="7" fill="#67E8F9" fill-opacity=".9"/>
    <rect x="784" y="430" width="96" height="14" rx="7" fill="#67E8F9" fill-opacity=".58"/>
  </g>
  <path d="M114 542C225 516 318 505 424 505C585 505 692 547 834 547C936 547 1054 526 1200 482V675H114V542Z" fill="#08111D" fill-opacity=".9"/>
  <rect width="1200" height="675" rx="40" fill="url(#wash)"/>
  <rect width="1200" height="675" rx="40" fill="url(#glowA)"/>
  <rect width="1200" height="675" rx="40" fill="url(#glowB)"/>
  <rect x="30" y="30" width="1140" height="615" rx="34" stroke="rgba(255,255,255,.06)"/>
</svg>
